<?xml version="1.0" encoding="utf-8"?>
<!-- Generator: Adobe Illustrator 21.1.0, SVG Export Plug-In . SVG Version: 6.00 Build 0)  -->
<svg version="1.1" id="Laag_1" xmlns="http://www.w3.org/2000/svg" xmlns:xlink="http://www.w3.org/1999/xlink" x="0px" y="0px"
	 viewBox="0 0 178.7 227.3" style="enable-background:new 0 0 178.7 227.3;" xml:space="preserve">
<style type="text/css">
	.st0{fill:#5EC1C9;}
	.st1{fill:#FFFFFF;}
	.st2{fill:none;stroke:#FFFFFF;stroke-width:0.5;stroke-miterlimit:10;}
	.st3{fill:#FFFFFF;stroke:#5EC1C9;stroke-width:0.5;stroke-miterlimit:10;}
	.st4{fill:#5B5959;}
</style>
<path class="st0" d="M88.2,173.1v48.3c0,0,83.2-65.6,83.2-131.9c0-46-37.4-83.5-83.5-83.5C41.8,6.1,4.4,43.5,4.4,89.6
	c0,46.2,37.4,83.5,83.5,83.5C88.1,173.1,88.1,173.1,88.2,173.1"/>
<g>
	<path class="st1" d="M51,139.6L51,139.6c2.1-3.9,6.9-5.5,11.1-3.2c4.2,2.2,5.6,7,3.5,10.9l0,0c-2.1,3.9-6.8,5.4-11,3.2
		C50.3,148.3,48.9,143.5,51,139.6z M62.4,145.7L62.4,145.7c1.3-2.4,0.6-5.2-1.8-6.5c-2.4-1.3-5.1-0.3-6.4,2.1l0,0
		c-1.2,2.3-0.6,5.2,1.8,6.5C58.4,149.1,61.1,148,62.4,145.7z"/>
	<path class="st1" d="M71.3,140.8l3.3,0.7l-2.5,12.1l7.6,1.6l-0.6,3l-10.9-2.3L71.3,140.8z"/>
	<path class="st1" d="M84,143.1l11.7-0.5l0.1,3l-8.3,0.4l0.1,3.1l7.3-0.3l0.1,3l-7.3,0.3l0.1,3.2l8.4-0.4l0.1,3l-11.8,0.5L84,143.1z
		"/>
	<path class="st1" d="M97.9,142.3l6.7-2.1c1.9-0.6,3.5-0.5,4.8,0.1c1.1,0.6,1.9,1.6,2.3,3l0,0c0.8,2.4-0.1,4.3-1.7,5.6l5.3,4.1
		l-3.8,1.2l-4.7-3.7l0,0l-2.5,0.8l1.5,4.7l-3.2,1L97.9,142.3z M106.7,147.3c1.6-0.5,2.2-1.6,1.8-2.9l0,0c-0.4-1.4-1.6-1.8-3.2-1.3
		l-3.2,1l1.3,4.2L106.7,147.3z"/>
	<path class="st1" d="M120.4,143l-10.1-4.6l3.3-2.2l6.5,3.2l-0.2-7.3l3.2-2.1l0.1,11.1l3.4,5.2l-2.9,1.9L120.4,143z"/>
</g>
<circle class="st2" cx="88.1" cy="88.9" r="74.1"/>
<circle class="st3" cx="88.1" cy="88.9" r="48.7"/>
<g>
	<polygon class="st1" points="88.7,20.9 90.8,25.1 95.4,25.8 92.1,29.1 92.9,33.7 88.7,31.5 84.5,33.7 85.3,29.1 81.9,25.8 
		86.6,25.1 	"/>
	<polygon class="st1" points="73.1,23.5 75.2,27.8 79.9,28.5 76.5,31.7 77.3,36.4 73.1,34.2 69,36.4 69.8,31.7 66.4,28.5 71,27.8 	
		"/>
	<polygon class="st1" points="104.2,23.5 106.3,27.8 111,28.5 107.6,31.7 108.4,36.4 104.2,34.2 100.1,36.4 100.9,31.7 97.5,28.5 
		102.2,27.8 	"/>
	<polygon class="st1" points="119.8,30 121.9,34.2 126.5,34.9 123.2,38.2 124,42.8 119.8,40.6 115.6,42.8 116.4,38.2 113,34.9 
		117.7,34.2 	"/>
	<polygon class="st1" points="57.6,30 59.7,34.2 64.3,34.9 60.9,38.2 61.7,42.8 57.6,40.6 53.4,42.8 54.2,38.2 50.8,34.9 55.5,34.2 
			"/>
</g>
<g>
	<path class="st4" d="M54.3,75.3h-4.6v-3.1h12.5v3.1h-4.6v12h-3.3V75.3z"/>
	<path class="st4" d="M65.3,72.2h6.9c1.9,0,3.4,0.5,4.4,1.5c0.8,0.8,1.3,2,1.3,3.4v0c0,2.4-1.3,4-3.2,4.7l3.7,5.4h-3.9l-3.2-4.8h0
		h-2.6v4.8h-3.3V72.2z M72,79.6c1.6,0,2.5-0.9,2.5-2.1v0c0-1.4-1-2.2-2.6-2.2h-3.3v4.3H72z"/>
	<path class="st4" d="M81.2,80.9v-8.6h3.3v8.5c0,2.5,1.2,3.7,3.3,3.7c2,0,3.3-1.2,3.3-3.6v-8.6h3.3v8.5c0,4.6-2.6,6.8-6.6,6.8
		C83.7,87.6,81.2,85.3,81.2,80.9z"/>
	<path class="st4" d="M97.3,85.1l2-2.3c1.4,1.1,2.8,1.8,4.5,1.8c1.4,0,2.2-0.5,2.2-1.4v0c0-0.8-0.5-1.3-3-1.9c-3-0.8-5-1.6-5-4.6v0
		c0-2.7,2.2-4.5,5.3-4.5c2.2,0,4.1,0.7,5.6,1.9l-1.7,2.5c-1.3-0.9-2.6-1.5-3.9-1.5s-1.9,0.6-1.9,1.3v0c0,1,0.6,1.3,3.3,2
		c3.1,0.8,4.8,1.9,4.8,4.5v0c0,3-2.3,4.7-5.5,4.7C101.4,87.5,99.1,86.7,97.3,85.1z"/>
	<path class="st4" d="M115.8,75.3h-4.6v-3.1h12.5v3.1h-4.6v12h-3.3V75.3z"/>
</g>
<g>
	<path class="st4" d="M50.8,106.2l2.1-2.5c1.4,1.2,3,2,4.8,2c1.4,0,2.3-0.6,2.3-1.5v0c0-0.9-0.6-1.4-3.2-2c-3.2-0.8-5.3-1.7-5.3-4.9
		v0c0-2.9,2.3-4.8,5.6-4.8c2.3,0,4.3,0.7,6,2l-1.8,2.7c-1.4-1-2.8-1.6-4.2-1.6c-1.4,0-2.1,0.6-2.1,1.4v0c0,1.1,0.7,1.4,3.5,2.1
		c3.3,0.8,5.1,2,5.1,4.8v0c0,3.2-2.4,5-5.9,5C55.2,108.7,52.8,107.9,50.8,106.2z"/>
	<path class="st4" d="M71,92.4h12.1v3.1h-8.6v3.3h7.6v3.1h-7.6v3.4h8.7v3.1H71V92.4z"/>
	<path class="st4" d="M96.2,92.3h3.3l6.9,16.2h-3.7l-1.5-3.6h-6.8l-1.5,3.6h-3.6L96.2,92.3z M100,101.8l-2.1-5.2l-2.1,5.2H100z"/>
	<path class="st4" d="M113.2,92.4h3.5v12.9h8v3.2h-11.5V92.4z"/>
</g>
</svg>
